<svg width="25" height="25" viewBox="0 0 25 25" fill="none" xmlns="http://www.w3.org/2000/svg">
<path d="M6.58896 13.315H9.32936V24.5968C9.32936 24.8195 9.50984 25 9.73258 25H14.379C14.6018 25 14.7823 24.8195 14.7823 24.5968V13.3681H17.9326C18.1374 13.3681 18.3098 13.2144 18.3331 13.011L18.8116 8.85758C18.8248 8.74331 18.7886 8.62887 18.7121 8.54315C18.6356 8.45734 18.5261 8.40823 18.4111 8.40823H14.7824V5.80468C14.7824 5.01984 15.205 4.62185 16.0386 4.62185C16.1573 4.62185 18.4111 4.62185 18.4111 4.62185C18.6339 4.62185 18.8144 4.44129 18.8144 4.21863V0.40621C18.8144 0.183468 18.6339 0.00298387 18.4111 0.00298387H15.1414C15.1183 0.00185484 15.0671 0 14.9916 0C14.4243 0 12.4523 0.111371 10.8945 1.54444C9.16855 3.1325 9.40847 5.03395 9.46581 5.36363V8.40814H6.58896C6.36621 8.40814 6.18573 8.58863 6.18573 8.81137V12.9117C6.18573 13.1344 6.36621 13.315 6.58896 13.315Z" fill="#FEF9F9"/>
</svg>
