<svg width="23" height="24" viewBox="0 0 23 24" fill="none" xmlns="http://www.w3.org/2000/svg">
<g clip-path="url(#clip0_5_13)">
<path d="M7.4417 0.020628C5.5392 0.168753 3.80126 0.960003 2.44234 2.29688C0.621198 4.0875 -0.249622 6.59438 0.0665357 9.14063C0.35496 11.4731 1.63623 13.5656 3.57755 14.8763C3.93438 15.1181 4.08044 15.2044 4.44652 15.39C5.28221 15.8156 6.1216 16.0688 7.11814 16.1944C7.50086 16.2413 8.52884 16.2413 8.91155 16.1944C9.6585 16.1006 10.3019 15.9356 10.973 15.6675C11.4371 15.4838 12.0824 15.1369 12.4873 14.8556L12.6352 14.7544L14.6227 16.7663C21.7132 23.9419 21.593 23.82 21.7002 23.8819C22.0497 24.0788 22.4601 24.0225 22.7411 23.7375C23.0148 23.46 23.0739 23.0644 22.8964 22.7006C22.8576 22.62 22.0423 21.7856 18.4 18.09C14.3103 13.9406 13.9553 13.575 13.9775 13.5431C13.9923 13.5244 14.0514 13.455 14.1069 13.3875C15.427 11.82 16.1185 9.77438 16.0131 7.74188C15.9539 6.59813 15.708 5.61188 15.2366 4.62188C14.9241 3.9675 14.6079 3.46875 14.142 2.89688C13.946 2.65688 13.4117 2.115 13.1732 1.91438C11.903 0.847502 10.4683 0.226877 8.85424 0.0468769C8.53253 0.0112534 7.74861 -0.00374794 7.4417 0.020628ZM8.88382 1.8C10.3204 2.02125 11.5702 2.66813 12.5483 3.70125C13.5023 4.70625 14.081 5.94 14.2677 7.35938C14.3121 7.70813 14.3121 8.51813 14.2677 8.87813C14.1679 9.65813 13.9756 10.2994 13.6354 10.9875C13.0863 12.0994 12.1952 13.0519 11.121 13.6725C9.33864 14.7019 7.14033 14.7788 5.2933 13.875C3.49065 12.9938 2.21123 11.3175 1.83036 9.3375C1.76195 8.9775 1.73607 8.73188 1.72498 8.29688C1.71388 7.81313 1.73237 7.50375 1.80263 7.07625C2.1003 5.25563 3.17449 3.64313 4.73864 2.67375C5.57618 2.1525 6.46734 1.86 7.53414 1.755C7.57482 1.75125 7.83736 1.74938 8.11654 1.75313C8.51774 1.75875 8.67859 1.76813 8.88382 1.8Z" fill="#F9F7F7"/>
</g>
<defs>
<clipPath id="clip0_5_13">
<rect width="23" height="24" fill="white"/>
</clipPath>
</defs>
</svg>
