<svg width="32" height="28" viewBox="0 0 32 28" fill="none" xmlns="http://www.w3.org/2000/svg">
<path d="M31.2746 3.92392C30.7719 4.14688 30.2551 4.33507 29.727 4.48784C30.3522 3.78074 30.8289 2.94874 31.1199 2.03829C31.1851 1.83421 31.1175 1.61083 30.9498 1.47736C30.7822 1.34379 30.5495 1.32779 30.365 1.4371C29.2434 2.10229 28.0334 2.58033 26.7647 2.85987C25.4866 1.61104 23.7508 0.90033 21.9563 0.90033C18.1684 0.90033 15.0867 3.98193 15.0867 7.7697C15.0867 8.06802 15.1056 8.36469 15.143 8.65723C10.4426 8.24454 6.07276 5.93424 3.07198 2.25331C2.96504 2.12211 2.80029 2.0514 2.63162 2.06492C2.46285 2.07814 2.31121 2.17331 2.22595 2.31958C1.61733 3.36392 1.29557 4.55834 1.29557 5.77362C1.29557 7.42885 1.88654 8.99932 2.93046 10.2265C2.61304 10.1165 2.30502 9.97914 2.01103 9.81594C1.8532 9.7281 1.66058 9.72944 1.50378 9.81935C1.34687 9.90926 1.2485 10.0746 1.24437 10.2554C1.24365 10.2858 1.24365 10.3163 1.24365 10.3471C1.24365 12.8179 2.5734 15.0423 4.60644 16.2547C4.43178 16.2372 4.25722 16.2119 4.0838 16.1788C3.90502 16.1446 3.72117 16.2073 3.6006 16.3436C3.47983 16.4799 3.43988 16.6698 3.49552 16.8432C4.24804 19.1927 6.18548 20.9208 8.52767 21.4476C6.58507 22.6644 4.36355 23.3017 2.03147 23.3017C1.54486 23.3017 1.05547 23.2731 0.5765 23.2164C0.338565 23.1881 0.111055 23.3286 0.0300229 23.5549C-0.0510093 23.7813 0.0348745 24.0336 0.2373 24.1634C3.23322 26.0843 6.69738 27.0997 10.2551 27.0997C17.249 27.0997 21.6242 23.8016 24.063 21.0348C27.104 17.5849 28.8481 13.0185 28.8481 8.50663C28.8481 8.31814 28.8452 8.12779 28.8394 7.93806C30.0392 7.03411 31.0722 5.94012 31.9128 4.68273C32.0404 4.49176 32.0266 4.23937 31.8787 4.06358C31.731 3.88768 31.4848 3.83081 31.2746 3.92392Z" fill="#FDFAFA"/>
</svg>
